# xmcd
#
# Track frame offsets:
#	150
#	17309
#	35107
#	54635
#	71816
#	88284
#	105804
#	121942
#	136836
#	154706
#
# Disc length: 2303 seconds
#
# Revision: 1
# Processed by: cddbd v1.5.2PL0 Copyright (c) Steve Scherf et al.
# Submitted via: audiograbber 1.83.01
#
DISCID=7c08fd0a
DTITLE=Craig Morgan - That's Why
DYEAR=2008
DGENRE=Country
TTITLE0=Love Remembers
TTITLE1=Lookin' Back With You
TTITLE2=That's Why
TTITLE3=Sticks
TTITLE4=God Must Really Love Me
TTITLE5=Summer Sundown
TTITLE6=Every Red Light
TTITLE7=It Took A Woman
TTITLE8=Planet Her
TTITLE9=Ordinary Angels
EXTD=
EXTT0=
EXTT1=
EXTT2=
EXTT3=
EXTT4=
EXTT5=
EXTT6=
EXTT7=
EXTT8=
EXTT9=
PLAYORDER=
